<?xml version="1.0" standalone="no"?>
<!DOCTYPE svg PUBLIC "-//W3C//DTD SVG 20010904//EN"
 "http://www.w3.org/TR/2001/REC-SVG-20010904/DTD/svg10.dtd">
<svg version="1.0" xmlns="http://www.w3.org/2000/svg"
 width="595.000000pt" height="595.000000pt" viewBox="0 0 595.000000 595.000000"
 preserveAspectRatio="xMidYMid meet">
<metadata>
Created by potrace 1.11, written by Peter Selinger 2001-2013
</metadata>
<g transform="translate(0.000000,595.000000) scale(0.100000,-0.100000)"
fill="#000000" stroke="none">
<path d="M3790 5934 c-25 -16 -50 -50 -79 -109 -116 -239 -152 -293 -236 -355
-27 -20 -81 -50 -120 -65 -40 -16 -84 -43 -102 -62 -37 -38 -102 -142 -162
-259 -51 -98 -67 -158 -86 -329 -12 -104 -16 -131 -31 -200 -9 -42 -58 -101
-196 -236 -76 -74 -141 -128 -178 -148 -32 -17 -89 -55 -127 -84 -37 -29 -113
-84 -168 -122 -307 -212 -471 -349 -581 -485 -16 -19 -31 -37 -34 -40 -9 -7
-70 -98 -70 -103 0 -3 -16 -31 -35 -63 -19 -32 -44 -83 -55 -113 -12 -31 -24
-63 -27 -71 -23 -54 -80 -276 -90 -350 -15 -106 -8 -451 11 -570 2 -14 7 -46
10 -71 4 -25 9 -57 11 -70 4 -24 9 -59 20 -159 4 -30 9 -66 11 -80 12 -71 23
-204 29 -340 5 -122 -1 -149 -73 -335 -69 -179 -75 -205 -76 -325 -1 -115 5
-167 30 -238 90 -265 297 -424 659 -503 50 -11 113 -22 140 -25 28 -4 79 -10
115 -14 71 -9 427 -5 500 5 116 15 258 41 305 56 17 5 59 17 95 28 344 100
347 214 6 207 -86 -2 -145 -9 -171 -18 -22 -9 -71 -18 -108 -22 -37 -3 -97 -9
-134 -12 -102 -10 -228 -11 -296 -3 -34 4 -93 9 -131 10 -116 4 -405 92 -490
149 -131 89 -210 229 -200 357 9 118 68 157 200 134 32 -6 79 -13 104 -15 25
-3 69 -8 97 -11 214 -23 1139 -23 1458 -1 56 4 187 18 206 21 9 2 40 6 70 10
72 9 213 51 276 81 28 14 68 42 88 61 66 64 32 125 -76 138 -122 14 -147 17
-180 27 -35 10 -36 12 -47 77 -6 36 -13 75 -15 86 -2 11 -8 38 -12 60 -9 49
-14 74 -19 100 -25 117 -56 266 -60 290 -3 17 -10 53 -15 82 -53 276 -47 452
21 642 52 143 212 445 290 549 39 52 76 112 83 135 7 23 27 67 43 97 45 82 60
147 68 290 10 194 10 273 2 333 -8 64 -9 69 -28 172 -21 117 -23 141 -23 226
0 74 4 95 26 140 23 46 38 62 104 104 99 63 163 130 208 220 80 157 57 225
-104 311 -37 20 -71 50 -107 95 -98 123 -183 179 -305 202 -58 11 -59 12 -74
57 -10 29 -16 100 -19 202 -5 155 -17 228 -42 249 -23 19 -77 20 -104 3z"/>
</g>
</svg>
